<svg width="41" height="23" viewBox="0 0 41 23" fill="none" xmlns="http://www.w3.org/2000/svg">
<path d="M9.89258 11.9746H4.50195V15.3633H10.8691V18H1.07422V3.78125H10.8887V6.42773H4.50195V9.42578H9.89258V11.9746ZM24.9406 18H21.5324L16.4934 9.15234V18H13.0656V3.78125H16.4934L21.5227 12.6289V3.78125H24.9406V18ZM39.9492 16.2422C39.4219 16.8281 38.6504 17.3001 37.6348 17.6582C36.6191 18.0163 35.5059 18.1953 34.2949 18.1953C32.4329 18.1953 30.9453 17.6257 29.832 16.4863C28.7188 15.347 28.123 13.7617 28.0449 11.7305L28.0352 10.5C28.0352 9.10026 28.2826 7.87956 28.7773 6.83789C29.2721 5.78971 29.9785 4.98568 30.8965 4.42578C31.821 3.85938 32.8887 3.57617 34.0996 3.57617C35.8704 3.57617 37.2441 3.98307 38.2207 4.79688C39.2038 5.60417 39.7767 6.81185 39.9395 8.41992H36.6387C36.5215 7.62565 36.2676 7.05924 35.877 6.7207C35.4863 6.38216 34.9329 6.21289 34.2168 6.21289C33.3574 6.21289 32.6934 6.57747 32.2246 7.30664C31.7559 8.03581 31.5182 9.07747 31.5117 10.4316V11.291C31.5117 12.7103 31.7526 13.778 32.2344 14.4941C32.7227 15.2038 33.4876 15.5586 34.5293 15.5586C35.4212 15.5586 36.0853 15.36 36.5215 14.9629V12.7559H34.1387V10.4023H39.9492V16.2422Z" fill="white"/>
<path d="M9.89258 11.9746V12.9746H10.8926V11.9746H9.89258ZM4.50195 11.9746V10.9746H3.50195V11.9746H4.50195ZM4.50195 15.3633H3.50195V16.3633H4.50195V15.3633ZM10.8691 15.3633H11.8691V14.3633H10.8691V15.3633ZM10.8691 18V19H11.8691V18H10.8691ZM1.07422 18H0.0742188V19H1.07422V18ZM1.07422 3.78125V2.78125H0.0742188V3.78125H1.07422ZM10.8887 3.78125H11.8887V2.78125H10.8887V3.78125ZM10.8887 6.42773V7.42773H11.8887V6.42773H10.8887ZM4.50195 6.42773V5.42773H3.50195V6.42773H4.50195ZM4.50195 9.42578H3.50195V10.4258H4.50195V9.42578ZM9.89258 9.42578H10.8926V8.42578H9.89258V9.42578ZM9.89258 10.9746H4.50195V12.9746H9.89258V10.9746ZM3.50195 11.9746V15.3633H5.50195V11.9746H3.50195ZM4.50195 16.3633H10.8691V14.3633H4.50195V16.3633ZM9.86914 15.3633V18H11.8691V15.3633H9.86914ZM10.8691 17H1.07422V19H10.8691V17ZM2.07422 18V3.78125H0.0742188V18H2.07422ZM1.07422 4.78125H10.8887V2.78125H1.07422V4.78125ZM9.88867 3.78125V6.42773H11.8887V3.78125H9.88867ZM10.8887 5.42773H4.50195V7.42773H10.8887V5.42773ZM3.50195 6.42773V9.42578H5.50195V6.42773H3.50195ZM4.50195 10.4258H9.89258V8.42578H4.50195V10.4258ZM8.89258 9.42578V11.9746H10.8926V9.42578H8.89258ZM24.9406 18V19H25.9406V18H24.9406ZM21.5324 18L20.6635 18.4949L20.9511 19H21.5324V18ZM16.4934 9.15234L17.3623 8.65744L15.4934 5.37592V9.15234H16.4934ZM16.4934 18V19H17.4934V18H16.4934ZM13.0656 18H12.0656V19H13.0656V18ZM13.0656 3.78125V2.78125H12.0656V3.78125H13.0656ZM16.4934 3.78125L17.3627 3.28708L17.0752 2.78125H16.4934V3.78125ZM21.5227 12.6289L20.6533 13.1231L22.5227 16.4117V12.6289H21.5227ZM21.5227 3.78125V2.78125H20.5227V3.78125H21.5227ZM24.9406 3.78125H25.9406V2.78125H24.9406V3.78125ZM24.9406 17H21.5324V19H24.9406V17ZM22.4014 17.5051L17.3623 8.65744L15.6244 9.64724L20.6635 18.4949L22.4014 17.5051ZM15.4934 9.15234V18H17.4934V9.15234H15.4934ZM16.4934 17H13.0656V19H16.4934V17ZM14.0656 18V3.78125H12.0656V18H14.0656ZM13.0656 4.78125H16.4934V2.78125H13.0656V4.78125ZM15.624 4.27542L20.6533 13.1231L22.392 12.1347L17.3627 3.28708L15.624 4.27542ZM22.5227 12.6289V3.78125H20.5227V12.6289H22.5227ZM21.5227 4.78125H24.9406V2.78125H21.5227V4.78125ZM23.9406 3.78125V18H25.9406V3.78125H23.9406ZM39.9492 16.2422L40.6925 16.9112L40.9492 16.6259V16.2422H39.9492ZM28.0449 11.7305L27.045 11.7384L27.0451 11.7537L27.0457 11.7689L28.0449 11.7305ZM28.0352 10.5H27.0351L27.0352 10.5079L28.0352 10.5ZM28.7773 6.83789L29.6806 7.26695L29.6817 7.26477L28.7773 6.83789ZM30.8965 4.42578L31.4172 5.27951L31.4189 5.27847L30.8965 4.42578ZM38.2207 4.79688L37.5805 5.56512L37.5861 5.56969L38.2207 4.79688ZM39.9395 8.41992V9.41992H41.0458L40.9344 8.31922L39.9395 8.41992ZM36.6387 8.41992L35.6494 8.56588L35.7754 9.41992H36.6387V8.41992ZM32.2246 7.30664L33.0658 7.8474L32.2246 7.30664ZM31.5117 10.4316L30.5117 10.4268V10.4316H31.5117ZM32.2344 14.4941L31.4046 15.0523L31.4106 15.061L32.2344 14.4941ZM36.5215 14.9629L37.1947 15.7023L37.5215 15.4048V14.9629H36.5215ZM36.5215 12.7559H37.5215V11.7559H36.5215V12.7559ZM34.1387 12.7559H33.1387V13.7559H34.1387V12.7559ZM34.1387 10.4023V9.40234H33.1387V10.4023H34.1387ZM39.9492 10.4023H40.9492V9.40234H39.9492V10.4023ZM39.2059 15.5732C38.8239 15.9977 38.2153 16.3932 37.3023 16.7151L37.9673 18.6013C39.0855 18.2071 40.0199 17.6586 40.6925 16.9112L39.2059 15.5732ZM37.3023 16.7151C36.4059 17.0311 35.4066 17.1953 34.2949 17.1953V19.1953C35.6052 19.1953 36.8324 19.0014 37.9673 18.6013L37.3023 16.7151ZM34.2949 17.1953C32.6529 17.1953 31.4405 16.7016 30.5473 15.7874L29.1168 17.1852C30.4501 18.5497 32.213 19.1953 34.2949 19.1953V17.1953ZM30.5473 15.7874C29.651 14.8703 29.1155 13.5462 29.0442 11.692L27.0457 11.7689C27.1306 13.9772 27.7865 15.8238 29.1168 17.1852L30.5473 15.7874ZM29.0449 11.7225L29.0351 10.4921L27.0352 10.5079L27.045 11.7384L29.0449 11.7225ZM29.0352 10.5C29.0352 9.2175 29.2617 8.14897 29.6806 7.26695L27.8741 6.40883C27.3034 7.61014 27.0352 8.98302 27.0352 10.5H29.0352ZM29.6817 7.26477C30.0998 6.37889 30.6792 5.72966 31.4172 5.27951L30.3758 3.57205C29.2779 4.24169 28.4444 5.20054 27.873 6.41101L29.6817 7.26477ZM31.4189 5.27847C32.1683 4.81935 33.0509 4.57617 34.0996 4.57617V2.57617C32.7264 2.57617 31.4737 2.8994 30.3741 3.57309L31.4189 5.27847ZM34.0996 4.57617C35.7276 4.57617 36.843 4.95052 37.5805 5.5651L38.8609 4.02865C37.6453 3.01562 36.0133 2.57617 34.0996 2.57617V4.57617ZM37.5861 5.56969C38.3135 6.16707 38.8008 7.10074 38.9445 8.52062L40.9344 8.31922C40.7526 6.52296 40.094 5.04127 38.8553 4.02406L37.5861 5.56969ZM39.9395 7.41992H36.6387V9.41992H39.9395V7.41992ZM37.628 8.27396C37.4943 7.36785 37.1801 6.52678 36.5319 5.96501L35.222 7.47639C35.3551 7.59171 35.5487 7.88345 35.6494 8.56588L37.628 8.27396ZM36.5319 5.96501C35.9 5.41735 35.081 5.21289 34.2168 5.21289V7.21289C34.7849 7.21289 35.0727 7.34697 35.222 7.47639L36.5319 5.96501ZM34.2168 5.21289C33.0136 5.21289 32.0342 5.75352 31.3834 6.76588L33.0658 7.8474C33.3525 7.40143 33.7013 7.21289 34.2168 7.21289V5.21289ZM31.3834 6.76588C30.7693 7.72127 30.5187 8.98077 30.5117 10.4268L32.5117 10.4364C32.5178 9.17418 32.7425 8.35034 33.0658 7.8474L31.3834 6.76588ZM30.5117 10.4316V11.291H32.5117V10.4316H30.5117ZM30.5117 11.291C30.5117 12.7932 30.7612 14.0959 31.4047 15.0523L33.0641 13.936C32.744 13.4601 32.5117 12.6273 32.5117 11.291H30.5117ZM31.4106 15.061C32.1259 16.1006 33.237 16.5586 34.5293 16.5586V14.5586C33.7383 14.5586 33.3194 14.3069 33.0582 13.9273L31.4106 15.061ZM34.5293 16.5586C35.5464 16.5586 36.4997 16.3351 37.1947 15.7023L35.8483 14.2234C35.6709 14.3849 35.2961 14.5586 34.5293 14.5586V16.5586ZM37.5215 14.9629V12.7559H35.5215V14.9629H37.5215ZM36.5215 11.7559H34.1387V13.7559H36.5215V11.7559ZM35.1387 12.7559V10.4023H33.1387V12.7559H35.1387ZM34.1387 11.4023H39.9492V9.40234H34.1387V11.4023ZM38.9492 10.4023V16.2422H40.9492V10.4023H38.9492Z" fill="black"/>
</svg>
